<svg width="800" height="800" viewBox="0 0 800 800" fill="none" xmlns="http://www.w3.org/2000/svg">
<path opacity="0.4" d="M382.013 457.663C433.743 457.663 475.68 415.727 475.68 363.997C475.68 312.265 433.743 270.329 382.013 270.329C330.282 270.329 288.346 312.265 288.346 363.997C288.346 415.727 330.282 457.663 382.013 457.663Z" stroke="white" stroke-width="50" stroke-linecap="round" stroke-linejoin="round"/>
<path opacity="0.4" d="M554.983 673.327C554.983 595.66 477.65 532.323 381.983 532.323C286.318 532.323 208.984 595.327 208.984 673.327" stroke="white" stroke-width="50" stroke-linecap="round" stroke-linejoin="round"/>
<path d="M683.333 433.667C683.333 608.667 541.667 750.333 366.667 750.333C191.667 750.333 50 608.667 50 433.667C50 258.667 191.667 117 366.667 117C410.333 117 452 125.666 490 141.666C485.667 155 483.333 169 483.333 183.667C483.333 208.667 490.333 232.333 502.667 252.333C509.333 263.667 518 273.999 528 282.666C551.333 303.999 582.333 317 616.667 317C631.333 317 645.333 314.666 658.333 309.999C674.333 347.999 683.333 390 683.333 433.667Z" stroke="white" stroke-width="50" stroke-linecap="round" stroke-linejoin="round"/>
<path d="M766.667 166.667C766.667 177.333 765.333 187.666 762.667 197.666C759.667 211 754.333 224 747.333 235.333C731.333 262.333 705.667 283.333 675 292.999C662 297.666 648 300 633.333 300C599 300 568 286.999 544.667 265.666C534.667 256.999 526 246.667 519.333 235.333C507 215.333 500 191.667 500 166.667C500 152 502.333 138 506.667 124.666C513 105.333 523.667 88.0008 537.667 73.6675C562 48.6675 596 33.3335 633.333 33.3335C672.667 33.3335 708.333 50.3342 732.333 77.6675C753.667 101.334 766.667 132.667 766.667 166.667Z" stroke="white" stroke-width="50" stroke-miterlimit="10" stroke-linecap="round" stroke-linejoin="round"/>
<path d="M682.993 166H583.66" stroke="white" stroke-width="50" stroke-miterlimit="10" stroke-linecap="round" stroke-linejoin="round"/>
<path d="M633.333 117.334V217" stroke="white" stroke-width="50" stroke-miterlimit="10" stroke-linecap="round" stroke-linejoin="round"/>
</svg>
