<svg width="800" height="800" viewBox="0 0 800 800" fill="none" xmlns="http://www.w3.org/2000/svg">
<path fill-rule="evenodd" clip-rule="evenodd" d="M236.667 166.667H100C81.5907 166.667 66.6667 181.591 66.6667 200C66.6667 218.409 81.5907 233.333 100 233.333H135.352L162.825 672.903C166.119 725.607 209.824 766.667 262.63 766.667H537.37C590.177 766.667 633.88 725.607 637.177 672.903L664.65 233.333H700C718.41 233.333 733.333 218.409 733.333 200C733.333 181.591 718.41 166.667 700 166.667H633.577C633.393 166.665 633.21 166.665 633.027 166.667H563.333C547.89 90.5922 480.633 33.3335 400 33.3335C319.368 33.3335 252.11 90.5922 236.667 166.667ZM305.69 166.667H494.31C480.583 127.827 443.54 100 400 100C356.46 100 319.418 127.827 305.69 166.667ZM597.85 233.333H202.148L229.362 668.747C230.46 686.313 245.028 700 262.63 700H537.37C554.973 700 569.54 686.313 570.64 668.747L597.85 233.333ZM475.967 333.657C494.333 334.943 508.18 350.87 506.893 369.237L492.943 568.747C491.66 587.113 475.73 600.96 457.367 599.677C439 598.39 425.153 582.463 426.44 564.097L440.39 364.587C441.673 346.22 457.603 332.374 475.967 333.657ZM324.033 333.66C342.397 332.375 358.327 346.22 359.61 364.587L373.563 564.1C374.847 582.463 361 598.393 342.637 599.677C324.27 600.96 308.342 587.113 307.058 568.75L293.106 369.237C291.822 350.873 305.669 334.943 324.033 333.66Z" fill="white"/>
</svg>
